D:\PredSimResults\Vitruvian_Man\IG_v20ms_ATx70.mot
version=1
nRows=12
nColumns=31
inDegrees=yes
endheader
                time	         pelvis_tilt	           pelvis_tx	           pelvis_ty	       hip_flexion_r	        knee_angle_r	       ankle_angle_r	       hip_flexion_l	        knee_angle_l	       ankle_angle_l	    lumbar_extension	          arm_flex_r	          arm_flex_l	hamstrings_r/activation	bifemsh_r/activation	glut_max_r/activation	iliopsoas_r/activation	rect_fem_r/activation	  vasti_r/activation	gastroc_r/activation	 soleus_r/activation	tib_ant_r/activation	hamstrings_l/activation	bifemsh_l/activation	glut_max_l/activation	iliopsoas_l/activation	rect_fem_l/activation	  vasti_l/activation	gastroc_l/activation	 soleus_l/activation	tib_ant_l/activation	
          0.41198214	         -3.55818105	          0.82396428	          0.96591192	        -12.18592265	        -19.79096815	         -4.50333732	         34.50881387	        -16.13316660	         10.44101818	        -10.05378776	         35.62549471	         35.62606901	          0.05000273	          0.05640259	          0.06363678	          0.91545024	          0.51783715	          0.10819755	          0.31565145	          0.16080454	          0.13713500	          0.83456795	          0.05730428	          0.49803260	          0.06467495	          0.05689227	          0.12129554	          0.05001702	          0.05000532	          0.64361820	
          0.42022178	         -4.10928829	          0.84505980	          0.96350488	        -12.17348087	        -20.52092326	         -6.95731411	         34.50114756	        -17.09842990	          9.65552841	         -8.79060894	         34.88761070	         34.88819130	          0.07175880	          0.05012170	          0.08684535	          0.87785353	          0.45531349	          0.09513859	          0.27753836	          0.14138820	          0.43187645	          0.73379963	          0.05042216	          0.63712351	          0.05686635	          0.05002437	          0.29599452	          0.05002891	          0.05210423	          0.76996972	
          0.42846142	         -4.65934632	          0.86597413	          0.96113796	        -11.91903040	        -21.56808248	         -9.07632948	         34.59313978	        -18.40235942	          9.11212177	         -7.52383575	         34.11204234	         34.11262696	          0.06309688	          0.05001418	          0.07636785	          0.88101654	          0.51396359	          0.08365398	          0.24402781	          0.12431649	          0.37972970	          0.64519690	          0.05003808	          0.73557730	          0.05000183	          0.05000199	          0.46120699	          0.05000268	          0.05000116	          0.85152614	
          0.43670107	         -5.20144038	          0.88625299	          0.95913269	        -11.40891103	        -22.83382298	         -9.79616203	         34.87039602	        -19.78985658	          7.43311940	         -6.32885211	         33.35469847	         33.35528455	          0.05548003	          0.05004510	          0.06714750	          0.85236848	          0.56906196	          0.07355373	          0.21456335	          0.10930603	          0.54147084	          0.56729245	          0.05003206	          0.80930257	          0.05000493	          0.05000976	          0.61371280	          0.05000432	          0.05000187	          0.90416689	
          0.44494071	         -5.70295201	          0.90599939	          0.95762304	        -10.72582369	        -24.19747643	         -9.52622406	         35.22620663	        -21.33264610	          5.81209380	         -5.23385226	         32.60371516	         32.60430007	          0.05000555	          0.14886887	          0.05904045	          0.79199885	          0.55077525	          0.06467292	          0.18865677	          0.09610803	          0.56769974	          0.49879460	          0.05002209	          0.87688512	          0.05000669	          0.05002269	          0.75061039	          0.05000510	          0.05000214	          0.93814385	
          0.45318035	         -6.15513835	          0.92539129	          0.95666752	         -9.92031578	        -25.54276921	         -9.30713375	         35.50147844	        -22.86971106	          4.71304683	         -4.22757967	         31.83331794	         31.83389899	          0.05000713	          0.22475940	          0.05191269	          0.72399163	          0.48428677	          0.05686460	          0.16587868	          0.08450370	          0.56761886	          0.43856753	          0.05003038	          0.89158771	          0.05001008	          0.05002646	          0.82709544	          0.05000422	          0.05000172	          0.96007432	
          0.46142000	         -6.55694480	          0.94452223	          0.95627579	         -9.00482898	        -26.89214140	         -8.90344492	         35.57775518	        -24.16196182	          3.78100903	         -3.30039250	         31.03330319	         31.03387769	          0.05000947	          0.26411892	          0.05000325	          0.64019215	          0.42581865	          0.05000239	          0.14585103	          0.07430061	          0.55559572	          0.38561260	          0.05008321	          0.82565243	          0.05000883	          0.05001124	          0.85362444	          0.05000357	          0.05000139	          0.97422926	
          0.46965964	         -6.90959322	          0.96342172	          0.95641894	         -7.98269050	        -28.28090954	         -8.14760834	         35.43514711	        -25.17569992	          3.01706880	         -2.44905455	         30.20673493	         30.20730026	          0.05385338	          0.29183182	          0.05000448	          0.56289566	          0.37441191	          0.05000208	          0.12824137	          0.06532948	          0.52700447	          0.33905172	          0.05019266	          0.72596123	          0.05000605	          0.05000794	          0.88736821	          0.05000408	          0.05000156	          0.98336511	
          0.47789928	         -7.21386113	          0.98206219	          0.95708511	         -6.85900779	        -29.70499797	         -7.33767262	         35.12644252	        -26.04976660	          2.85098841	         -1.67964073	         29.36548899	         29.36604264	          0.06687491	          0.30900395	          0.05000590	          0.49493028	          0.33984123	          0.05000193	          0.11275792	          0.05744168	          0.49550898	          0.29811286	          0.05002915	          0.63830537	          0.05000346	          0.05000651	          0.91627955	          0.05000767	          0.05000453	          0.98925899	
          0.48613892	         -7.46915681	          1.00036962	          0.95829904	         -5.63784416	        -31.16513799	         -6.51027484	         34.71932017	        -26.93318632	          3.62649168	         -1.00637380	         28.52675532	         28.52729482	          0.05883458	          0.33337572	          0.05000380	          0.43517110	          0.39366636	          0.05000162	          0.09914394	          0.05050670	          0.47089091	          0.26211717	          0.05003164	          0.56123318	          0.05000484	          0.05000972	          0.92077868	          0.05000832	          0.05000480	          0.86982062	
          0.49437857	         -7.66959906	          1.01836428	          0.96006009	         -4.35558149	        -32.60938915	         -5.64359828	         34.16115984	        -27.64424097	          4.56535100	         -0.43750190	         27.69677003	         27.69729302	          0.05704224	          0.35403529	          0.05000329	          0.38262753	          0.39718750	          0.05000156	          0.08717373	          0.05000180	          0.45165053	          0.23046783	          0.05004440	          0.49346699	          0.05000487	          0.05000858	          0.88964771	          0.05000749	          0.05000346	          0.76479682	
          0.50261821	         -7.80983757	          1.03611122	          0.96231178	         -3.05463024	        -33.96973839	         -4.85930852	         33.40124282	        -28.08126257	          5.43186002	          0.02594646	         26.87816192	         26.87866618	          0.05655541	          0.38049610	          0.05000344	          0.33642904	          0.40661445	          0.05000161	          0.07664897	          0.05000212	          0.43920278	          0.20264002	          0.05004537	          0.43388320	          0.05000428	          0.05000772	          0.81504603	          0.05000732	          0.05000375	          0.67245423	
